<svg xmlns="http://www.w3.org/2000/svg" viewBox="0 0 629.45 165.94"><defs><style>.cls-1,.cls-3{fill:#006837;}.cls-2{fill:none;stroke-width:4.13px;}.cls-2,.cls-3{stroke:#006837;stroke-miterlimit:10;}.cls-3{stroke-width:0.17px;}</style></defs><g id="Layer_2" data-name="Layer 2"><g id="Layer_1-2" data-name="Layer 1"><path class="cls-1" d="M20,109.61c-3.3,2.61-4.54,5.23-4.54,6.88,0,2.48,2.34,5.24,8.53,5.24,5.1,0,10.89-.14,15.43-.14,8.81,0,20.11,2.89,20.11,16.53,0,14.32-16.94,27.82-35.26,27.82-15.56,0-24-9.09-24.24-17.22a10.88,10.88,0,0,1,3.44-7.85A128.58,128.58,0,0,1,14.74,131a18,18,0,0,1-10.33-7.44,12.54,12.54,0,0,1-1.66-5.92,29.17,29.17,0,0,0,12.68-9.51ZM26.58,111c-12.81,0-23.41-7.85-23.41-20.79,0-15.7,14.05-23,24.79-23a28.28,28.28,0,0,1,13.22,3.44,92.13,92.13,0,0,0,18.46-2.07l.82,1.24c-.82,2.21-3,6.06-5.09,7.3-2.07,0-6.61-.55-8.54-.69a21.28,21.28,0,0,1,4,12.54C50.82,104,38.43,111,26.58,111Zm3.17,20.39c-6.75,0-9.78.82-12.26,2.89-3.85,3.17-6.61,7.3-6.61,11.29,0,7.58,7.85,13.23,18.46,13.23,13.08,0,20.52-6.75,20.52-15.57,0-4.68-2.21-8.4-6.06-10.05C40.35,131.64,35.53,131.37,29.75,131.37ZM26.58,71.59c-6.2,0-11.71,5.65-11.71,16.53S20.38,106.58,28,106.58c6.06-.28,11.43-5.37,11.43-16.53C39.39,79.31,34.29,71.59,26.58,71.59Z"/><path class="cls-1" d="M96.82,129.72H65.15v-3.86c8.67-.83,9.5-1.52,9.5-10.47V86.74c0-9.09-.55-9.5-8.54-10.46V72.83a76.19,76.19,0,0,0,19.42-5.64V82.34C90.35,75.18,96.13,67.6,103,67.6c5.1,0,8,3.17,8,6.61a9.26,9.26,0,0,1-4.68,7.58,2.74,2.74,0,0,1-3.59-.28c-2.06-2.07-3.71-3.44-6.19-3.44-2.9,0-8,4.27-11,11.29v25.89c0,9.09.69,9.78,11.29,10.61Z"/><path class="cls-1" d="M165.69,118c-8.82,11-18.46,13.36-22.87,13.36-16.8,0-27-13.77-27-29.61,0-9.37,3.3-18.05,9-24.11,5.79-6.47,13.36-10.05,20.52-10.05,12,0,21.08,10.33,21.08,21.35-.14,2.75-.56,4-2.76,4.54-2.75.55-20.38,1.79-36.77,2.34-.42,18.46,10.88,26,20.66,26,5.64,0,10.88-2.35,16-7ZM142,72.83c-6.34,0-12.54,5.93-14.46,17.08,7.71,0,15.42,0,23.55-.41,2.48,0,3.3-.69,3.3-2.76C154.53,79.44,149.71,72.83,142,72.83Z"/><path class="cls-1" d="M226.7,118c-8.81,11-18.46,13.36-22.86,13.36-16.81,0-27-13.77-27-29.61,0-9.37,3.31-18.05,8.95-24.11,5.79-6.47,13.36-10.05,20.53-10.05,12,0,21.07,10.33,21.07,21.35-.14,2.75-.55,4-2.76,4.54-2.75.55-20.38,1.79-36.77,2.34-.41,18.46,10.88,26,20.66,26,5.65,0,10.88-2.35,16-7ZM203,72.83c-6.33,0-12.53,5.93-14.46,17.08,7.71,0,15.42,0,23.55-.41,2.48,0,3.31-.69,3.31-2.76C215.54,79.44,210.72,72.83,203,72.83Z"/><path class="cls-1" d="M275.18,129.72v-3.86c8-.83,8.81-1.79,8.81-11.16V92c0-9.64-3.44-16.12-12.53-16.12-5.65,0-11,3.31-15.29,7.17v32.22c0,9.51.83,9.78,9,10.61v3.86H235.38v-3.86c9.09-1,9.91-1.52,9.91-10.61V86.88c0-8.95-1-9.36-8.4-10.6V72.7a78.72,78.72,0,0,0,19.28-5.51V78.07c2.76-1.93,5.79-4,9.37-6.34C269.4,69.25,273,67.6,277,67.6c11,0,17.91,8.13,17.91,21.49v26.16c0,9.37.82,9.78,8.81,10.61v3.86Z"/><path class="cls-1" d="M309.75,129.72v-3.86c8.81-.83,9.92-1.52,9.92-10.61v-66c0-8.4-.69-9.23-9.51-10.33V35.37a97.44,97.44,0,0,0,20.39-4.68v84.56c0,9.09.82,9.78,9.78,10.61v3.86Z"/><path class="cls-1" d="M398.17,118c-8.81,11-18.45,13.36-22.86,13.36-16.8,0-27-13.77-27-29.61,0-9.37,3.31-18.05,9-24.11,5.78-6.47,13.36-10.05,20.52-10.05,12,0,21.07,10.33,21.07,21.35-.14,2.75-.55,4-2.76,4.54-2.75.55-20.38,1.79-36.77,2.34-.41,18.46,10.88,26,20.66,26,5.65,0,10.88-2.35,16-7ZM374.48,72.83c-6.33,0-12.53,5.93-14.46,17.08,7.71,0,15.43,0,23.55-.41,2.48,0,3.31-.69,3.31-2.76C387,79.44,382.19,72.83,374.48,72.83Z"/><path class="cls-1" d="M452.16,131.37a10,10,0,0,1-6.47-2.62,13,13,0,0,1-3.31-6.2c-5.51,3.72-12.26,8.82-16.53,8.82a16.9,16.9,0,0,1-16.8-16.94c0-6.75,3.72-11.16,11.3-13.78,8.4-2.89,18.73-6.47,21.76-9V89c0-9.78-5-15.43-12.12-15.43a8,8,0,0,0-6.48,3.17c-1.51,1.93-2.48,5-3.72,9-.68,2.21-1.92,3.17-4,3.17-2.62,0-6.06-2.75-6.06-6.06,0-1.93,1.79-3.58,4.54-5.51,4-2.89,12-8,19.84-9.64a19,19,0,0,1,11.57,3.72c4.82,4.13,7,8.81,7,16v26.58c0,6.33,2.34,8.26,4.82,8.26a11,11,0,0,0,5-1.51l1.38,3.85ZM442.11,96.52c-3,1.52-9.64,4.41-12.81,5.79-5.24,2.34-8.4,5-8.4,10,0,7.3,5.51,10.61,9.91,10.61,3.58,0,8.54-2.21,11.3-5Z"/><path class="cls-1" d="M477.92,69.25V65.53c0-9.91,3.44-20.1,12.12-27.54a28.55,28.55,0,0,1,15.42-7.3c4.68.14,8.95,1.79,11.16,4.41a4.41,4.41,0,0,1,.82,4.82,11,11,0,0,1-3.3,4.4c-1.52,1-2.62.69-4-.27-2.75-2.48-6.61-5.65-11.15-5.65-10.19,0-10.19,13.91-10.19,24.38v6.47h14.59c.83,1.24.14,4.69-1.37,5.65H488.8v39.8c0,9.92,1.51,10.06,11.84,11.16v3.86H468.27v-3.86c8.68-.83,9.65-1.38,9.65-10.33V74.9h-9.78l-.55-1.52,3-4.13Z"/><path class="cls-2" d="M564.61,163.32c0-68.52,11.09-123.95,24.8-123.95"/><path class="cls-3" d="M584.65,41.16c32,2.61,42.56-22.8,44.7-41-19.28,4.82-40.63,15.5-44.21,39.81"/><path class="cls-3" d="M570,81.3c3.23-21.89-13.23-29.81-25.35-31.81C547,62.85,553.05,77.86,569.09,81"/><path class="cls-3" d="M567.16,115.19c14.74-.14,19.35-13.57,20.11-23-8.81,3.38-18.52,9.78-20,22.32"/></g></g></svg>