<?xml version="1.0" encoding="utf-8"?>
<!-- Generator: Adobe Illustrator 27.2.0, SVG Export Plug-In . SVG Version: 6.00 Build 0)  -->
<svg version="1.1" id="Layer_1" xmlns="http://www.w3.org/2000/svg" xmlns:xlink="http://www.w3.org/1999/xlink" x="0px" y="0px"
	 viewBox="0 0 629.5 165.9" style="enable-background:new 0 0 629.5 165.9;" xml:space="preserve">
<style type="text/css">
	.st0{fill:#006837;}
	.st1{fill:#FCF5F5;}
</style>
<path class="st0" d="M20,109.6c-3.3,2.6-4.5,5.2-4.5,6.9c0,2.5,2.3,5.2,8.5,5.2c5.1,0,10.9-0.1,15.4-0.1c8.8,0,20.1,2.9,20.1,16.5
	c0,14.3-16.9,27.8-35.3,27.8c-15.6,0-24-9.1-24.2-17.2c0-3,1.3-5.8,3.4-7.9c3.6-3.5,7.3-6.8,11.3-9.9c-4.2-1.1-7.9-3.8-10.3-7.4
	c-1-1.8-1.6-3.8-1.7-5.9c5-1.9,9.4-5.2,12.7-9.5L20,109.6z M26.6,111c-12.8,0-23.4-7.8-23.4-20.8c0-15.7,14.1-23,24.8-23
	c4.6,0,9.2,1.2,13.2,3.4c6.2-0.1,12.4-0.8,18.5-2.1l0.8,1.2c-0.8,2.2-3,6.1-5.1,7.3c-2.1,0-6.6-0.6-8.5-0.7c2.6,3.7,4,8,4,12.5
	C50.8,104,38.4,111,26.6,111z M29.8,131.4c-6.8,0-9.8,0.8-12.3,2.9c-3.9,3.2-6.6,7.3-6.6,11.3c0,7.6,7.9,13.2,18.5,13.2
	c13.1,0,20.5-6.8,20.5-15.6c0-4.7-2.2-8.4-6.1-10.1C40.3,131.6,35.5,131.4,29.8,131.4L29.8,131.4z M26.6,71.6
	c-6.2,0-11.7,5.7-11.7,16.5s5.5,18.5,13.1,18.5c6.1-0.3,11.4-5.4,11.4-16.5C39.4,79.3,34.3,71.6,26.6,71.6z"/>
<path class="st0" d="M96.8,129.7H65.2v-3.9c8.7-0.8,9.5-1.5,9.5-10.5V86.7c0-9.1-0.6-9.5-8.5-10.5v-3.4c6.7-1,13.2-2.9,19.4-5.6
	v15.1c4.8-7.2,10.6-14.7,17.5-14.7c5.1,0,8,3.2,8,6.6c-0.2,3.2-1.9,6-4.7,7.6c-1.1,0.8-2.6,0.7-3.6-0.3c-2.1-2.1-3.7-3.4-6.2-3.4
	c-2.9,0-8,4.3-11,11.3v25.9c0,9.1,0.7,9.8,11.3,10.6L96.8,129.7z"/>
<path class="st0" d="M165.7,118c-8.8,11-18.5,13.4-22.9,13.4c-16.8,0-27-13.8-27-29.6c0-9.4,3.3-18.1,9-24.1
	c5.8-6.5,13.4-10.1,20.5-10.1c12,0,21.1,10.3,21.1,21.3c-0.1,2.8-0.6,4-2.8,4.5c-2.8,0.6-20.4,1.8-36.8,2.3
	c-0.4,18.5,10.9,26,20.7,26c5.6,0,10.9-2.3,16-7L165.7,118z M142,72.8c-6.3,0-12.5,5.9-14.5,17.1c7.7,0,15.4,0,23.5-0.4
	c2.5,0,3.3-0.7,3.3-2.8C154.5,79.4,149.7,72.8,142,72.8z"/>
<path class="st0" d="M226.7,118c-8.8,11-18.5,13.4-22.9,13.4c-16.8,0-27-13.8-27-29.6c0-9.4,3.3-18.1,8.9-24.1
	c5.8-6.5,13.4-10.1,20.5-10.1c12,0,21.1,10.3,21.1,21.3c-0.1,2.8-0.6,4-2.8,4.5c-2.8,0.6-20.4,1.8-36.8,2.3
	c-0.4,18.5,10.9,26,20.7,26c5.6,0,10.9-2.3,16-7L226.7,118z M203,72.8c-6.3,0-12.5,5.9-14.5,17.1c7.7,0,15.4,0,23.6-0.4
	c2.5,0,3.3-0.7,3.3-2.8C215.5,79.4,210.7,72.8,203,72.8z"/>
<path class="st0" d="M275.2,129.7v-3.9c8-0.8,8.8-1.8,8.8-11.2V92c0-9.6-3.4-16.1-12.5-16.1c-5.6,0-11,3.3-15.3,7.2v32.2
	c0,9.5,0.8,9.8,9,10.6v3.9h-29.8v-3.9c9.1-1,9.9-1.5,9.9-10.6V86.9c0-8.9-1-9.4-8.4-10.6v-3.6c6.6-1,13.1-2.9,19.3-5.5v10.9
	c2.8-1.9,5.8-4,9.4-6.3c3.9-2.5,7.5-4.1,11.5-4.1c11,0,17.9,8.1,17.9,21.5v26.2c0,9.4,0.8,9.8,8.8,10.6v3.9H275.2z"/>
<path class="st0" d="M309.8,129.7v-3.9c8.8-0.8,9.9-1.5,9.9-10.6v-66c0-8.4-0.7-9.2-9.5-10.3v-3.5c6.9-0.8,13.8-2.4,20.4-4.7v84.6
	c0,9.1,0.8,9.8,9.8,10.6v3.9H309.8z"/>
<path class="st0" d="M398.2,118c-8.8,11-18.5,13.4-22.9,13.4c-16.8,0-27-13.8-27-29.6c0-9.4,3.3-18.1,9-24.1
	c5.8-6.5,13.4-10.1,20.5-10.1c12,0,21.1,10.3,21.1,21.3c-0.1,2.8-0.5,4-2.8,4.5c-2.8,0.6-20.4,1.8-36.8,2.3
	c-0.4,18.5,10.9,26,20.7,26c5.6,0,10.9-2.3,16-7L398.2,118z M374.5,72.8c-6.3,0-12.5,5.9-14.5,17.1c7.7,0,15.4,0,23.5-0.4
	c2.5,0,3.3-0.7,3.3-2.8C387,79.4,382.2,72.8,374.5,72.8z"/>
<path class="st0" d="M452.2,131.4c-2.4-0.1-4.7-1-6.5-2.6c-1.7-1.7-2.8-3.9-3.3-6.2c-5.5,3.7-12.3,8.8-16.5,8.8
	c-9.3-0.1-16.8-7.6-16.8-16.9c0-6.8,3.7-11.2,11.3-13.8c8.4-2.9,18.7-6.5,21.8-9V89c0-9.8-5-15.4-12.1-15.4c-2.5,0-4.9,1.1-6.5,3.2
	c-1.5,1.9-2.5,5-3.7,9c-0.7,2.2-1.9,3.2-4,3.2c-2.6,0-6.1-2.8-6.1-6.1c0-1.9,1.8-3.6,4.5-5.5c4-2.9,12-8,19.8-9.6
	c4.2-0.1,8.2,1.2,11.6,3.7c4.8,4.1,7,8.8,7,16V114c0,6.3,2.3,8.3,4.8,8.3c1.8-0.1,3.5-0.6,5-1.5l1.4,3.8L452.2,131.4z M442.1,96.5
	c-3,1.5-9.6,4.4-12.8,5.8c-5.2,2.3-8.4,5-8.4,10c0,7.3,5.5,10.6,9.9,10.6c3.6,0,8.5-2.2,11.3-5V96.5z"/>
<path class="st0" d="M477.9,69.2v-3.7c0-9.9,3.4-20.1,12.1-27.5c4.3-3.9,9.7-6.5,15.4-7.3c4.7,0.1,9,1.8,11.2,4.4
	c1.2,1.3,1.5,3.2,0.8,4.8c-0.7,1.7-1.8,3.2-3.3,4.4c-1.5,1-2.6,0.7-4-0.3c-2.8-2.5-6.6-5.7-11.1-5.7c-10.2,0-10.2,13.9-10.2,24.4
	v6.5h14.6c0.8,1.2,0.1,4.7-1.4,5.7h-13.2v39.8c0,9.9,1.5,10.1,11.8,11.2v3.9h-32.4v-3.9c8.7-0.8,9.6-1.4,9.6-10.3V74.9h-9.8
	l-0.5-1.5l3-4.1L477.9,69.2z"/>
<path class="st1" d="M374.7-236.6c0,44.9-36.4,81.2-81.2,81.2c-7.8,0-15.3-1.1-22.4-3.1c-1.4-0.4-2.7-0.8-4-1.3
	c-31.9-11-54.8-41.2-54.8-76.8c0-44.9,36.4-81.2,81.2-81.2C338.3-317.9,374.7-281.5,374.7-236.6z"/>
<path class="st0" d="M293.4-261.7v4.1c-6.8,0-15.7,22.9-20.1,65.5c0,0.1,0,0.2,0,0.3c0,0.1,0,0.1,0,0.2c-0.3,2.5-0.5,5-0.7,7.6
	c0,0,0,0.1,0,0.1c0,0,0,0,0,0.1c-0.7,7.8-1.2,16.3-1.5,25.3c-1.4-0.4-2.7-0.8-4-1.3c0.8-21,2.8-41.3,5.8-58.2c0,0,0-0.1,0-0.1
	c0,0,0-0.1,0-0.1c0.5-2.6,0.9-5.1,1.4-7.4c0-0.1,0-0.2,0.1-0.3c0-0.1,0-0.2,0.1-0.3c3.7-17.6,8.7-30.4,14.9-34.3c0,0,0.1,0,0.1-0.1
	c0,0,0.1,0,0.1-0.1C290.7-261.3,292-261.7,293.4-261.7z"/>
<g>
	<path class="st0" d="M288.7-257.8c32,2.6,42.6-22.8,44.7-41c-19.3,4.8-40.6,15.5-44.2,39.8L288.7-257.8z"/>
	<path class="st0" d="M293.1-257.6c-1.5,0-3-0.1-4.5-0.2l0-0.2c14.2,1.2,25.5-3.1,33.5-12.7c7.9-9.5,10.3-21.6,11.1-28.1
		c-11.4,2.9-20.7,7.1-27.8,12.6c-9.1,7-14.6,16.2-16.2,27.2l-0.2,0c1.6-11,7.1-20.2,16.2-27.3c7.2-5.5,16.6-9.8,28-12.6l0.1,0l0,0.1
		c-0.8,6.5-3.2,18.8-11.2,28.3C315.1-261.9,305.3-257.6,293.1-257.6z"/>
</g>
<g>
	<path class="st0" d="M274-217.7c3.2-21.9-13.2-29.8-25.3-31.8c2.3,13.4,8.4,28.4,24.4,31.5L274-217.7z"/>
	<path class="st0" d="M274.1-217.7l-0.2,0c1.4-9.7-0.9-17.6-6.9-23.3c-5.9-5.6-13.9-7.7-18.3-8.4c3.2,18.3,11.4,28.8,24.4,31.3
		l0,0.2c-13-2.5-21.3-13.2-24.5-31.6l0-0.1l0.1,0c4.3,0.7,12.5,2.8,18.5,8.5C273.2-235.4,275.5-227.5,274.1-217.7z"/>
</g>
<g>
	<path class="st0" d="M271.2-183.8c14.7-0.1,19.3-13.6,20.1-23c-8.8,3.4-18.5,9.8-20,22.3L271.2-183.8z"/>
	<path class="st0" d="M271.2-183.7l0-0.2c4.3,0,18.3-1.8,20-22.8c-12,4.6-18.6,12.1-19.8,22.2l-0.2,0c1.2-10.2,8-17.7,20.1-22.4
		l0.1,0l0,0.1c-0.3,3.4-1.3,9.8-4.8,15C282.9-186.5,277.8-183.8,271.2-183.7z"/>
</g>
</svg>
