<?xml version="1.0" encoding="UTF-8"?><svg id="Layer_2" xmlns="http://www.w3.org/2000/svg" viewBox="0 0 162.47 162.46"><defs><style>.cls-1{fill:#006837;}.cls-2{fill:#fcf5f5;}</style></defs><g id="Layer_1-2"><path class="cls-2" d="m162.47,81.23c0,44.86-36.37,81.23-81.23,81.23-7.76,0-15.27-1.09-22.37-3.12-1.36-.39-2.71-.81-4.04-1.27C22.93,147.11,0,116.85,0,81.23,0,36.37,36.37,0,81.24,0s81.23,36.37,81.23,81.23Z"/><path class="cls-1" d="m81.21,56.17v4.13c-6.75,0-15.69,22.88-20.07,65.47-.01.08-.02.17-.03.26-.01.07-.02.14-.02.22-.26,2.48-.5,5.03-.71,7.64-.01.03-.01.07-.01.1-.01.03-.01.05-.01.08-.66,7.84-1.17,16.27-1.49,25.27-1.36-.39-2.71-.81-4.04-1.27.84-20.95,2.77-41.28,5.75-58.19,0-.03,0-.06,0-.09,0-.03.01-.06.01-.08.45-2.57.93-5.06,1.43-7.45.02-.09.04-.18.06-.26.01-.09.03-.18.05-.27,3.72-17.62,8.72-30.36,14.94-34.29.03-.02.06-.04.1-.06.03-.02.06-.04.09-.05,1.26-.76,2.58-1.16,3.94-1.16Z"/><g><path class="cls-1" d="m76.45,60.02c32,2.61,42.56-22.8,44.7-41-19.28,4.82-40.63,15.5-44.21,39.81l-.49,1.19Z"/><path class="cls-1" d="m80.94,60.29c-1.46,0-2.96-.06-4.5-.19v-.17c14.26,1.17,25.53-3.1,33.49-12.67,7.87-9.45,10.34-21.63,11.12-28.14-11.37,2.85-20.73,7.08-27.84,12.55-9.12,7.02-14.57,16.16-16.19,27.16l-.17-.02c1.63-11.04,7.09-20.22,16.25-27.27,7.15-5.51,16.58-9.75,28.02-12.61l.12-.03v.12c-.78,6.49-3.24,18.8-11.19,28.35-7.14,8.58-16.92,12.91-29.12,12.91Z"/></g><g><path class="cls-1" d="m61.8,100.16c3.23-21.89-13.23-29.81-25.35-31.81,2.35,13.36,8.4,28.37,24.44,31.51l.91.3Z"/><path class="cls-1" d="m61.88,100.17l-.17-.02c1.44-9.74-.88-17.58-6.89-23.29-5.92-5.62-13.94-7.68-18.27-8.4,3.24,18.26,11.43,28.79,24.35,31.32l-.03.17c-13.02-2.55-21.27-13.17-24.51-31.58l-.02-.12.12.02c4.32.71,12.47,2.76,18.48,8.47,6.05,5.75,8.39,13.64,6.94,23.44Z"/></g><g><path class="cls-1" d="m58.96,134.05c14.74-.14,19.35-13.57,20.11-23-8.81,3.38-18.52,9.78-20,22.32l-.11.68Z"/><path class="cls-1" d="m58.96,134.13v-.17c4.26-.04,18.26-1.81,20.01-22.79-11.96,4.62-18.63,12.09-19.82,22.2l-.17-.02c1.21-10.21,7.95-17.75,20.05-22.39l.13-.05v.13c-.28,3.35-1.27,9.76-4.84,15.02-3.58,5.28-8.75,7.99-15.37,8.05Z"/></g></g></svg>