<?xml version="1.0" encoding="utf-8"?>
<!-- Generator: Adobe Illustrator 27.1.1, SVG Export Plug-In . SVG Version: 6.00 Build 0)  -->
<svg version="1.1" id="Layer_1" xmlns="http://www.w3.org/2000/svg" xmlns:xlink="http://www.w3.org/1999/xlink" x="0px" y="0px"
	 viewBox="0 0 629.9 166.4" style="enable-background:new 0 0 629.9 166.4;" xml:space="preserve">
<style type="text/css">
	.st0{fill:#FFFFFF;stroke:#FFFFFF;stroke-miterlimit:10;}
	.st1{fill:none;stroke:#FFFFFF;stroke-width:4.13;stroke-miterlimit:10;}
	.st2{fill:#FFFFFF;stroke:#FFFFFF;stroke-width:0.17;stroke-miterlimit:10;}
</style>
<g id="Layer_2_00000058576164754665238660000012830672301116511155_">
	<g id="Layer_1-2">
		<path class="st0" d="M20.5,109.6c-3.3,2.6-4.5,5.2-4.5,6.9c0,2.5,2.3,5.2,8.5,5.2c5.1,0,10.9-0.1,15.4-0.1
			c8.8,0,20.1,2.9,20.1,16.5c0,14.3-16.9,27.8-35.3,27.8c-15.6,0-24-9.1-24.2-17.2c0-3,1.3-5.8,3.4-7.9c3.6-3.5,7.3-6.8,11.3-9.9
			c-4.2-1.1-7.9-3.8-10.3-7.4c-1-1.8-1.6-3.8-1.7-5.9c5-1.9,9.4-5.2,12.7-9.5L20.5,109.6L20.5,109.6z M27,110.9
			c-12.8,0-23.4-7.8-23.4-20.8c0-15.7,14-23,24.8-23c4.6,0.1,9.2,1.2,13.2,3.4c6.2-0.1,12.4-0.8,18.5-2.1l0.8,1.2
			c-0.8,2.2-3,6.1-5.1,7.3c-2.1,0-6.6-0.6-8.5-0.7c2.6,3.7,4,8,4,12.5C51.3,103.9,38.9,110.9,27,110.9z M30.2,131.3
			c-6.8,0-9.8,0.8-12.3,2.9c-3.9,3.2-6.6,7.3-6.6,11.3c0,7.6,7.9,13.2,18.5,13.2c13.1,0,20.5-6.8,20.5-15.6c0-4.7-2.2-8.4-6.1-10.1
			C40.8,131.6,36,131.3,30.2,131.3C30.2,131.3,30.2,131.3,30.2,131.3z M27,71.5c-6.2,0-11.7,5.7-11.7,16.5s5.5,18.5,13.1,18.5
			c6.1-0.3,11.4-5.4,11.4-16.5C39.9,79.3,34.8,71.5,27,71.5z"/>
		<path class="st0" d="M97.3,129.7H65.6v-3.9c8.7-0.8,9.5-1.5,9.5-10.5V86.7c0-9.1-0.6-9.5-8.5-10.5v-3.4c6.7-1,13.2-2.9,19.4-5.6
			v15.2c4.8-7.2,10.6-14.7,17.5-14.7c5.1,0,8,3.2,8,6.6c-0.2,3.2-1.9,6-4.7,7.6c-1.1,0.8-2.6,0.7-3.6-0.3c-2.1-2.1-3.7-3.4-6.2-3.4
			c-2.9,0-8,4.3-11,11.3v25.9c0,9.1,0.7,9.8,11.3,10.6L97.3,129.7L97.3,129.7z"/>
		<path class="st0" d="M166.2,117.9c-8.8,11-18.5,13.4-22.9,13.4c-16.8,0-27-13.8-27-29.6c0-9.4,3.3-18.1,9-24.1
			c5.8-6.5,13.4-10.1,20.5-10.1c12,0,21.1,10.3,21.1,21.3c-0.1,2.8-0.6,4-2.8,4.5c-2.8,0.6-20.4,1.8-36.8,2.3
			c-0.4,18.5,10.9,26,20.7,26c5.6,0,10.9-2.3,16-7L166.2,117.9L166.2,117.9z M142.5,72.8c-6.3,0-12.5,5.9-14.5,17.1
			c7.7,0,15.4,0,23.6-0.4c2.5,0,3.3-0.7,3.3-2.8C155,79.4,150.2,72.8,142.5,72.8z"/>
		<path class="st0" d="M227.2,117.9c-8.8,11-18.5,13.4-22.9,13.4c-16.8,0-27-13.8-27-29.6c0-9.4,3.3-18.1,8.9-24.1
			c5.8-6.5,13.4-10.1,20.5-10.1c12,0,21.1,10.3,21.1,21.3c-0.1,2.8-0.6,4-2.8,4.5c-2.8,0.6-20.4,1.8-36.8,2.3
			c-0.4,18.5,10.9,26,20.7,26c5.6,0,10.9-2.3,16-7L227.2,117.9L227.2,117.9z M203.5,72.8c-6.3,0-12.5,5.9-14.5,17.1
			c7.7,0,15.4,0,23.6-0.4c2.5,0,3.3-0.7,3.3-2.8C216,79.4,211.2,72.8,203.5,72.8z"/>
		<path class="st0" d="M275.6,129.7v-3.9c8-0.8,8.8-1.8,8.8-11.2V91.9c0-9.6-3.4-16.1-12.5-16.1c-5.6,0-11,3.3-15.3,7.2v32.2
			c0,9.5,0.8,9.8,9,10.6v3.9h-29.8v-3.9c9.1-1,9.9-1.5,9.9-10.6V86.8c0-8.9-1-9.4-8.4-10.6v-3.6c6.6-1,13.1-2.9,19.3-5.5V78
			c2.8-1.9,5.8-4,9.4-6.3c3.9-2.5,7.5-4.1,11.5-4.1c11,0,17.9,8.1,17.9,21.5v26.2c0,9.4,0.8,9.8,8.8,10.6v3.9L275.6,129.7
			L275.6,129.7z"/>
		<path class="st0" d="M310.2,129.7v-3.9c8.8-0.8,9.9-1.5,9.9-10.6v-66c0-8.4-0.7-9.2-9.5-10.3v-3.5c6.9-0.8,13.8-2.4,20.4-4.7v84.6
			c0,9.1,0.8,9.8,9.8,10.6v3.9H310.2L310.2,129.7z"/>
		<path class="st0" d="M398.6,117.9c-8.8,11-18.5,13.4-22.9,13.4c-16.8,0-27-13.8-27-29.6c0-9.4,3.3-18.1,9-24.1
			c5.8-6.5,13.4-10.1,20.5-10.1c12,0,21.1,10.3,21.1,21.3c-0.1,2.8-0.5,4-2.8,4.5c-2.8,0.6-20.4,1.8-36.8,2.3
			c-0.4,18.5,10.9,26,20.7,26c5.6,0,10.9-2.3,16-7L398.6,117.9L398.6,117.9z M375,72.8c-6.3,0-12.5,5.9-14.5,17.1
			c7.7,0,15.4,0,23.5-0.4c2.5,0,3.3-0.7,3.3-2.8C387.5,79.4,382.7,72.8,375,72.8z"/>
		<path class="st0" d="M452.6,131.3c-2.4-0.1-4.7-1-6.5-2.6c-1.6-1.7-2.8-3.9-3.3-6.2c-5.5,3.7-12.3,8.8-16.5,8.8
			c-9.3-0.1-16.8-7.6-16.8-16.9c0-6.8,3.7-11.2,11.3-13.8c8.4-2.9,18.7-6.5,21.8-9V89c0-9.8-5-15.4-12.1-15.4c-2.5,0-5,1.1-6.5,3.2
			c-1.5,1.9-2.5,5-3.7,9c-0.7,2.2-1.9,3.2-4,3.2c-2.6,0-6.1-2.8-6.1-6.1c0-1.9,1.8-3.6,4.5-5.5c4-2.9,12-8,19.8-9.6
			c4.2-0.1,8.2,1.2,11.6,3.7c4.8,4.1,7,8.8,7,16V114c0,6.3,2.3,8.3,4.8,8.3c1.8-0.1,3.5-0.6,5-1.5l1.4,3.8L452.6,131.3L452.6,131.3z
			 M442.6,96.5c-3,1.5-9.6,4.4-12.8,5.8c-5.2,2.3-8.4,5-8.4,10c0,7.3,5.5,10.6,9.9,10.6c3.6,0,8.5-2.2,11.3-5V96.5z"/>
		<path class="st0" d="M478.4,69.2v-3.7c0-9.9,3.4-20.1,12.1-27.5c4.3-4,9.7-6.5,15.4-7.3c4.7,0.1,8.9,1.8,11.2,4.4
			c1.2,1.3,1.5,3.2,0.8,4.8c-0.7,1.7-1.8,3.2-3.3,4.4c-1.5,1-2.6,0.7-4-0.3c-2.8-2.5-6.6-5.7-11.1-5.7c-10.2,0-10.2,13.9-10.2,24.4
			v6.5h14.6c0.8,1.2,0.1,4.7-1.4,5.7h-13.2v39.8c0,9.9,1.5,10.1,11.8,11.2v3.9h-32.4v-3.9c8.7-0.8,9.6-1.4,9.6-10.3V74.8h-9.8
			l-0.5-1.5l3-4.1H478.4L478.4,69.2z"/>
		<path class="st1" d="M565.1,163.3c0-68.5,11.1-123.9,24.8-123.9"/>
		<path class="st2" d="M585.1,41.1c32,2.6,42.6-22.8,44.7-41c-19.3,4.8-40.6,15.5-44.2,39.8"/>
		<path class="st2" d="M570.5,81.2c3.2-21.9-13.2-29.8-25.3-31.8c2.3,13.4,8.4,28.4,24.4,31.5"/>
		<path class="st2" d="M567.6,115.1c14.7-0.1,19.3-13.6,20.1-23c-8.8,3.4-18.5,9.8-20,22.3"/>
	</g>
</g>
</svg>
